<?xml version="1.0" encoding="iso-8859-1"?>
<!-- Uploaded to: SVG Repo, www.svgrepo.com, Generator: SVG Repo Mixer Tools -->
<!DOCTYPE svg PUBLIC "-//W3C//DTD SVG 1.1//EN" "http://www.w3.org/Graphics/SVG/1.1/DTD/svg11.dtd">
<svg fill="#000000" height="800px" width="800px" version="1.1" id="Capa_1" xmlns="http://www.w3.org/2000/svg" xmlns:xlink="http://www.w3.org/1999/xlink" 
	 viewBox="0 0 395 395" xml:space="preserve">
<g>
	<path d="M344.208,87.323l-53.48-0.034c-0.003,0-0.006,0-0.01,0c-3.975,0-7.789,1.578-10.601,4.388
		c-2.815,2.812-4.397,6.627-4.399,10.606l-0.017,42.518l-42.52,0.043c-8.271,0.008-14.975,6.711-14.985,14.982l-0.049,42.515
		l-42.512,0.008c-8.282,0.001-14.995,6.715-14.997,14.996l-0.01,42.468l-42.423-0.045c-0.006,0-0.011,0-0.016,0
		c-3.978,0-7.794,1.581-10.607,4.394c-2.817,2.817-4.397,6.64-4.393,10.624l0.05,42.45l-52.435-0.011c-0.001,0-0.001,0-0.003,0
		c-8.282,0-14.999,6.714-15,14.997c-0.001,8.284,6.713,15.001,14.997,15.003l67.456,0.014c0.001,0,0.002,0,0.003,0
		c3.98,0,7.798-1.583,10.612-4.398c2.814-2.817,4.393-6.638,4.388-10.619l-0.05-42.437l42.401,0.045c0.006,0,0.011,0,0.016,0
		c3.975,0,7.787-1.578,10.6-4.387c2.816-2.813,4.399-6.629,4.4-10.61l0.01-42.487l42.499-0.008
		c8.276-0.001,14.987-6.706,14.997-14.982l0.049-42.527l42.53-0.042c8.276-0.008,14.982-6.718,14.985-14.994l0.018-42.493
		l38.476,0.024c0.004,0,0.006,0,0.01,0c8.279,0,14.994-6.709,15-14.99C359.204,94.048,352.492,87.329,344.208,87.323z"/>
	<circle cx="130.416" cy="86.513" r="23.75"/>
	<path d="M71.153,139.035l13,11.667c1.967,1.766,4.477,2.686,7.015,2.686c1.521,0,3.053-0.33,4.484-1.007l14.764-6.978v25.402
		c0,1.952,0.293,3.833,0.814,5.616l-10.383,25.651c-1.929,4.766-0.124,10.227,4.266,12.904l21.053,12.839v16.947
		c0,5.799,4.701,10.5,10.5,10.5s10.5-4.701,10.5-10.5v-11.815c1.058-0.783,1.987-1.775,2.714-2.968
		c2.853-4.678,1.608-10.701-2.714-13.898v-34.367c2.049-3.139,3.25-6.881,3.25-10.91v-17.132l17.408,15.276
		c1.994,1.749,4.462,2.608,6.921,2.608c2.917,0,5.821-1.209,7.896-3.574c3.825-4.359,3.392-10.993-0.966-14.818l-36.667-32.178
		c-0.248-0.217-6.477-6.177-14.592-6.177c-3.47,0-6.731,0.886-9.576,2.439l-27.853,13.164l-7.808-7.007
		c-4.316-3.874-10.954-3.515-14.828,0.801C66.479,128.523,66.837,135.162,71.153,139.035z M123.658,201.689l2.508-6.197v7.726
		L123.658,201.689z"/>
	<path d="M313.001,0H81.999C36.785,0,0,36.784,0,81.998v230.993C0,358.211,36.785,395,81.999,395h231.002
		C358.216,395,395,358.211,395,312.991V81.998C395,36.784,358.216,0,313.001,0z M380,312.991C380,349.94,349.945,380,313.001,380
		H81.999C45.056,380,15,349.94,15,312.991V81.998C15,45.055,45.056,15,81.999,15h231.002C349.945,15,380,45.055,380,81.998V312.991z
		"/>
</g>
</svg>